<svg width="20" height="21" viewBox="0 0 20 21" fill="none" xmlns="http://www.w3.org/2000/svg">
<path d="M14.9639 6.72208C14.6112 6.52022 14.1575 6.52022 13.7543 6.72208L10.9323 8.38912L9.01747 9.44945L6.24567 11.1176C5.89302 11.3195 5.43929 11.3195 5.0361 11.1176L2.87004 9.80442C2.68583 9.69565 2.53313 9.5406 2.42703 9.35457C2.32093 9.16854 2.2651 8.95798 2.26506 8.74371V6.21705C2.26506 5.81295 2.46685 5.40885 2.87004 5.15634L5.0361 3.89377C5.38875 3.69153 5.84248 3.69153 6.24567 3.89377L8.41173 5.20699C8.59599 5.3157 8.74873 5.47074 8.85484 5.65678C8.96095 5.84283 9.01675 6.05341 9.01671 6.2677V7.93437L10.9316 6.82301V5.10607C10.9316 4.70197 10.7302 4.29787 10.327 4.04536L6.29583 1.67219C5.94318 1.46995 5.48983 1.46995 5.08664 1.67219L0.954023 4.09563C0.550832 4.29787 0.349426 4.70197 0.349426 5.10607V9.85355C0.349426 10.2576 0.550832 10.6606 0.954023 10.9143L5.0361 13.2886C5.38875 13.4908 5.84248 13.4908 6.24567 13.2886L9.01747 11.6722L10.9323 10.5612L13.7041 8.9448C14.0568 8.74295 14.5105 8.74295 14.9137 8.9448L17.0798 10.2078C17.2643 10.3166 17.4172 10.4718 17.5234 10.6582C17.6296 10.8445 17.6854 11.0554 17.6851 11.27V13.7951C17.6851 14.1992 17.4837 14.6033 17.0805 14.8558L14.9639 16.1188C14.6112 16.3206 14.1575 16.3206 13.7543 16.1188L11.5882 14.8558C11.4041 14.747 11.2514 14.592 11.1454 14.4059C11.0394 14.2199 10.9836 14.0094 10.9836 13.7951V12.1772L9.06763 13.2886V14.9552C9.06763 15.3593 9.26942 15.7634 9.67261 16.0159L13.7543 18.3899C14.1073 18.5921 14.5607 18.5921 14.9639 18.3899L19.046 16.0156C19.2301 15.9068 19.3828 15.7517 19.4888 15.5657C19.5948 15.3796 19.6506 15.1691 19.6505 14.9549V10.156C19.6505 9.75186 19.4491 9.34776 19.046 9.09525L14.9639 6.72208Z" fill="white"/>
</svg>
