<svg width="20" height="21" viewBox="0 0 20 21" fill="none" xmlns="http://www.w3.org/2000/svg">
<path fill-rule="evenodd" clip-rule="evenodd" d="M19.5321 3.26562H3.69268C3.56032 3.26562 3.43336 3.31811 3.33963 3.41157L0.224501 6.51778C0.00352657 6.73813 0.159575 7.11562 0.471634 7.11562H16.3312C16.4641 7.11562 16.5915 7.0627 16.6854 6.96854L19.7801 3.86267C19.9999 3.642 19.8436 3.26562 19.5321 3.26562ZM0.467765 8.36562H16.3072C16.4396 8.36562 16.5665 8.41811 16.6603 8.51157L19.7754 11.6178C19.9964 11.8381 19.8403 12.2156 19.5283 12.2156H3.66871C3.53579 12.2156 3.40834 12.1627 3.31452 12.0685L0.219834 8.96267C-4.1093e-05 8.742 0.156253 8.36562 0.467765 8.36562ZM3.69268 13.4656H19.5321C19.8436 13.4656 19.9999 13.842 19.7801 14.0627L16.6854 17.1685C16.5915 17.2627 16.4641 17.3156 16.3312 17.3156H0.471634C0.159575 17.3156 0.00352657 16.9381 0.224501 16.7178L3.33963 13.6116C3.43336 13.5181 3.56032 13.4656 3.69268 13.4656Z" fill="white"/>
</svg>
